# This file uses centimeters as units for non-parametric coordinates.

g default
v -0.107713 4.459250 3.189487
v 0.036439 4.459250 3.187756
v -0.107713 4.757764 3.189487
v 0.036439 4.757764 3.187756
v -0.223806 4.865320 -3.585480
v -0.079660 4.865320 -3.587215
v -0.223806 4.459250 -3.585480
v -0.079660 4.459250 -3.587215
v -0.122814 4.841662 -0.781906
v -0.138767 4.526169 -0.790890
v 0.005051 4.535999 -0.789738
v -0.022707 4.851492 -0.780220
v -0.206621 4.883799 -2.945454
v -0.178856 4.478790 -2.954971
v -0.035038 4.488621 -2.953819
v -0.062799 4.893629 -2.944305
v -0.026969 4.871824 2.604542
v -0.216305 4.497543 2.545063
v -0.085011 4.452746 2.505852
v 0.060610 4.827028 2.565857
v -0.107713 3.580050 3.189487
v 0.036439 3.580050 3.187756
v -0.107713 3.986121 3.189487
v 0.036439 3.986121 3.187756
v -0.115558 3.986121 -3.586784
v -0.079660 3.986121 -3.587215
v -0.223806 3.580050 -3.585480
v -0.079660 3.580050 -3.587215
v -0.143875 3.960742 -1.855907
v -0.196446 3.571970 -1.907837
v -0.079571 3.605429 -1.882305
v -0.114198 3.994201 -1.829323
v -0.036290 4.010360 0.017597
v -0.114902 4.010360 0.018539
v -0.227235 3.629860 0.161728
v -0.104136 3.629860 0.160248
v -0.091652 3.905821 1.950993
v -0.157194 3.499751 1.951778
v -0.013046 3.499751 1.950047
v -0.013046 3.905821 1.950047
v -0.107713 2.729126 3.189487
v 0.036439 2.729126 3.187756
v -0.049203 3.054136 3.188786
v 0.036439 3.054136 3.187756
v -0.223806 2.885257 -3.585480
v -0.079660 2.983502 -3.587215
v -0.223806 2.648066 -3.585480
v -0.079660 2.648066 -3.587215
v -0.248806 3.054136 1.052845
v -0.307316 2.648066 1.053547
v -0.163164 2.648066 1.051815
v -0.163164 3.054136 1.051815
v -0.103415 2.937354 -1.471581
v -0.260856 2.682535 -1.595882
v -0.151781 2.666604 -1.688789
v 0.005659 3.019667 -1.564484
v -0.107713 1.690734 3.189487
v 0.036439 1.690734 3.187756
v -0.107713 2.026631 3.189487
v 0.036439 2.026631 3.187756
v -0.223806 1.736174 -3.585480
v -0.079660 1.836833 -3.587215
v -0.223806 1.535629 -3.585480
v -0.079660 1.535629 -3.587215
v -0.202283 1.852207 -2.685574
v -0.222806 1.546272 -2.820759
v -0.081475 1.548699 -2.849087
v -0.060951 1.931056 -2.713898
v -0.217505 1.881489 -1.136803
v -0.311553 1.559913 -1.099644
v -0.177756 1.524137 -1.139648
v -0.083708 1.917415 -1.176807
v -0.100602 2.003314 0.476250
v -0.100602 1.712378 0.476250
v 0.043550 1.597244 0.474518
v 0.043550 2.003314 0.474518
v 0.086055 1.994885 2.489861
v -0.055861 2.005335 2.512955
v -0.095084 1.720806 2.452751
v 0.046831 1.595223 2.429657
v 0.026175 0.088492 2.948627
v 0.170323 0.088492 2.946896
v 0.031058 0.088492 3.354668
v 0.175208 0.088492 3.352932
v 0.031058 5.079731 3.354668
v 0.175208 5.079731 3.352932
v 0.026175 5.079731 2.948627
v 0.170323 5.079731 2.946896
vt 0.907884 0.031772
vt 0.907684 0.012009
vt 0.949941 0.011417
vt 0.950142 0.031180
vt 0.013531 0.996357
vt 0.013577 0.976591
vt 0.118170 0.967263
vt 0.112815 0.979346
vt 0.591951 0.972054
vt 0.592329 0.985775
vt 0.898352 0.973262
vt 0.898715 0.992977
vt 0.989385 0.974299
vt 0.989340 0.994065
vt 0.908885 0.130584
vt 0.908685 0.110822
vt 0.966167 0.110017
vt 0.966368 0.129780
vt 0.881319 0.955550
vt 0.875586 0.937627
vt 0.988630 0.923942
vt 0.989075 0.943700
vt 0.408978 0.951531
vt 0.408941 0.931811
vt 0.102689 0.961316
vt 0.102652 0.941597
vt 0.013497 0.968729
vt 0.013051 0.948969
vt 0.985107 0.576276
vt 0.871950 0.578752
vt 0.879925 0.527320
vt 0.984693 0.535351
vt 0.405315 0.573870
vt 0.406224 0.530598
vt 0.099036 0.584654
vt 0.099820 0.529109
vt 0.009414 0.589936
vt 0.008850 0.534265
vt 0.116619 0.523623
vt 0.008811 0.530384
vt 0.008396 0.489458
vt 0.107680 0.472428
vt 0.588812 0.513088
vt 0.587102 0.469852
vt 0.895222 0.515294
vt 0.893313 0.459787
vt 0.984504 0.516724
vt 0.983940 0.461053
vt 0.909085 0.150347
vt 0.908885 0.130584
vt 0.966368 0.129780
vt 0.966568 0.149543
vt 0.012929 0.936946
vt 0.012975 0.917180
vt 0.204843 0.916730
vt 0.204818 0.927508
vt 0.478430 0.916087
vt 0.478406 0.926866
vt 0.739986 0.923108
vt 0.743791 0.927123
vt 0.988783 0.914889
vt 0.988771 0.919811
vt 0.909135 0.155269
vt 0.909085 0.150347
vt 0.966568 0.149542
vt 0.966768 0.169305
vt 0.796725 0.896604
vt 0.796279 0.876845
vt 0.988102 0.871923
vt 0.988548 0.891683
vt 0.543425 0.909754
vt 0.543045 0.892880
vt 0.250417 0.909635
vt 0.253870 0.893561
vt 0.012970 0.916710
vt 0.012524 0.896952
vt 0.983803 0.447511
vt 0.792068 0.461204
vt 0.791505 0.405534
vt 0.983238 0.391840
vt 0.538527 0.446915
vt 0.517804 0.395032
vt 0.249420 0.454312
vt 0.256380 0.400907
vt 0.008110 0.461170
vt 0.007545 0.405498
vt 0.202896 0.748703
vt 0.010938 0.740380
vt 0.010374 0.684708
vt 0.202443 0.693030
vt 0.456112 0.727317
vt 0.475853 0.674868
vt 0.749158 0.731152
vt 0.741267 0.677956
vt 0.986632 0.726720
vt 0.986252 0.671046
vt 0.908284 0.071297
vt 0.908084 0.051534
vt 0.954092 0.050890
vt 0.954211 0.062631
vt 0.010109 0.658569
vt 0.010136 0.646826
vt 0.329366 0.665175
vt 0.329339 0.676919
vt 0.699491 0.636846
vt 0.686491 0.651983
vt 0.985944 0.644534
vt 0.985899 0.664300
vt 0.922392 0.090864
vt 0.908284 0.071297
vt 0.955768 0.070632
vt 0.955968 0.090394
vt 0.669350 0.876386
vt 0.668904 0.856626
vt 0.987671 0.829344
vt 0.988117 0.849104
vt 0.294235 0.875268
vt 0.280931 0.860498
vt 0.012539 0.874131
vt 0.012093 0.854373
vt 0.983092 0.377403
vt 0.664207 0.392982
vt 0.663643 0.337311
vt 0.982641 0.332846
vt 0.276225 0.395872
vt 0.293331 0.347221
vt 0.007512 0.402175
vt 0.007046 0.356188
vt 0.328985 0.642033
vt 0.009874 0.635385
vt 0.009523 0.590826
vt 0.328521 0.586360
vt 0.703987 0.632056
vt 0.686038 0.597368
vt 0.985680 0.632839
vt 0.985351 0.600321
vt 0.908685 0.110822
vt 0.908484 0.091059
vt 0.956034 0.090393
vt 0.956233 0.110156
vt 0.011863 0.831636
vt 0.011908 0.811870
vt 0.127224 0.798903
vt 0.124151 0.818405
vt 0.412572 0.800736
vt 0.412526 0.820502
vt 0.646509 0.814911
vt 0.641031 0.833333
vt 0.864065 0.808744
vt 0.860251 0.828177
vt 0.987717 0.809578
vt 0.987671 0.829344
vt 0.922334 0.051334
vt 0.907884 0.031772
vt 0.950522 0.031175
vt 0.950722 0.050937
vt 0.866257 0.758875
vt 0.862790 0.739464
vt 0.986804 0.743703
vt 0.987250 0.763462
vt 0.586473 0.763548
vt 0.586028 0.743789
vt 0.363685 0.795593
vt 0.357836 0.777328
vt 0.119922 0.786836
vt 0.115717 0.767516
vt 0.011671 0.788489
vt 0.011226 0.768730
vt 0.982409 0.310005
vt 0.858590 0.324835
vt 0.866557 0.269923
vt 0.981943 0.263955
vt 0.581820 0.328432
vt 0.581256 0.272760
vt 0.353422 0.341654
vt 0.347616 0.287810
vt 0.111402 0.341674
vt 0.130008 0.288986
vt 0.006932 0.344929
vt 0.006514 0.303635
vt 0.126922 0.250534
vt 0.006034 0.256349
vt 0.005568 0.210298
vt 0.118004 0.211644
vt 0.406724 0.247772
vt 0.406320 0.207885
vt 0.630018 0.265551
vt 0.634831 0.221390
vt 0.873676 0.264011
vt 0.854114 0.222336
vt 0.981943 0.263955
vt 0.981665 0.236461
vt 0.909945 0.210970
vt 0.909499 0.191211
vt 0.966970 0.189737
vt 0.967417 0.209496
vt 0.005568 0.210298
vt 0.005369 0.190536
vt 0.711920 0.180644
vt 0.712121 0.200407
vt 0.909485 0.189872
vt 0.909531 0.170106
vt 0.967016 0.169971
vt 0.966970 0.189737
vt 0.005369 0.190536
vt 0.005168 0.170774
vt 0.711720 0.160883
vt 0.711920 0.180644
vt 0.004604 0.115107
vt 0.711156 0.105216
vt 0.711720 0.160883
vt 0.005168 0.170774
vt 0.711156 0.105216
vt 0.004604 0.115107
vt 0.004039 0.059440
vt 0.710592 0.049549
vn 0.012014 0.000000 0.999928
vn 0.012014 0.000000 0.999928
vn 0.012014 0.000000 0.999928
vn 0.012014 0.000000 0.999928
vn 0.214849 0.962625 0.164903
vn 0.214849 0.962625 0.164903
vn 0.199222 0.976690 0.079919
vn 0.199222 0.976690 0.079919
vn -0.012039 0.000000 -0.999928
vn -0.012039 0.000000 -0.999928
vn -0.012039 0.000000 -0.999928
vn -0.012039 0.000000 -0.999928
vn -0.144384 -0.989490 -0.007952
vn -0.144384 -0.989490 -0.007952
vn -0.159933 -0.987119 0.004080
vn -0.159933 -0.987119 0.004080
vn 0.975527 -0.203778 -0.082594
vn 0.981605 -0.186203 -0.042203
vn 0.981605 -0.186203 -0.042203
vn 0.975527 -0.203778 -0.082594
vn -0.960840 0.275616 0.028667
vn -0.962416 0.265999 0.054766
vn -0.962416 0.265999 0.054766
vn -0.960840 0.275616 0.028667
vn -0.998893 -0.025939 0.039248
vn -0.990646 0.135546 0.015775
vn -0.990646 0.135546 0.015775
vn -0.998893 -0.025939 0.039248
vn 0.051101 -0.998289 0.028408
vn 0.051101 -0.998289 0.028408
vn -0.030536 -0.999534 0.000300
vn -0.030536 -0.999534 0.000300
vn 0.998897 -0.045827 -0.010222
vn 0.998897 -0.045827 -0.010222
vn 0.997845 0.056044 -0.034119
vn 0.997845 0.056044 -0.034119
vn 0.051199 0.998656 0.008088
vn 0.051199 0.998656 0.008088
vn -0.057407 0.998327 -0.006908
vn -0.057407 0.998327 -0.006908
vn -0.998152 -0.034753 0.049854
vn -0.998152 -0.034753 0.049854
vn 0.034169 -0.998759 0.036228
vn 0.034169 -0.998759 0.036228
vn 0.998162 0.034747 -0.049654
vn 0.998162 0.034747 -0.049654
vn -0.034167 0.998785 -0.035518
vn -0.034167 0.998785 -0.035518
vn 0.012013 0.000000 0.999928
vn 0.012013 0.000000 0.999928
vn 0.012013 0.000000 0.999928
vn 0.012013 0.000000 0.999928
vn -0.000778 0.997904 -0.064710
vn -0.000778 0.997904 -0.064710
vn -0.000065 0.999986 -0.005360
vn -0.000065 0.999986 -0.005360
vn -0.012032 -0.000002 -0.999928
vn -0.012032 -0.000002 -0.999928
vn -0.012032 -0.000002 -0.999928
vn -0.012032 -0.000002 -0.999928
vn -0.000047 -0.999992 -0.003884
vn -0.000047 -0.999992 -0.003884
vn 0.000777 -0.997904 0.064710
vn 0.000777 -0.997904 0.064710
vn 0.999202 0.000000 -0.039949
vn 0.998198 -0.046264 -0.038211
vn 0.998198 -0.046264 -0.038211
vn 0.999202 0.000000 -0.039949
vn -0.987753 0.154238 0.023538
vn -0.996725 0.080446 0.008235
vn -0.996725 0.080446 0.008235
vn -0.987753 0.154238 0.023538
vn -0.980159 0.198208 0.001671
vn -0.979060 0.203560 -0.002237
vn -0.979060 0.203560 -0.002237
vn -0.980159 0.198208 0.001671
vn 0.126783 -0.991922 0.004044
vn 0.126783 -0.991922 0.004044
vn 0.131364 -0.991251 0.012852
vn 0.131364 -0.991251 0.012852
vn 0.999998 -0.000896 -0.001856
vn 0.999998 -0.000896 -0.001856
vn 0.999035 0.042888 0.009524
vn 0.999035 0.042888 0.009524
vn -0.374739 0.927110 -0.006132
vn -0.374739 0.927110 -0.006132
vn -0.453312 0.891344 -0.003747
vn -0.453312 0.891344 -0.003747
vn -0.148078 0.988707 0.023036
vn -0.148078 0.988707 0.023036
vn -0.975794 0.218086 0.016285
vn -0.975794 0.218086 0.016285
vn 0.067765 -0.997376 -0.025489
vn 0.067765 -0.997376 -0.025489
vn 0.997337 -0.068578 -0.024821
vn 0.997337 -0.068578 -0.024821
vn 0.012018 -0.000002 0.999928
vn 0.012018 -0.000002 0.999928
vn 0.012018 -0.000002 0.999928
vn 0.012018 -0.000002 0.999928
vn 0.000000 1.000000 0.000000
vn 0.000000 1.000000 0.000000
vn -0.209723 0.977401 -0.026525
vn -0.209723 0.977401 -0.026525
vn -0.012040 0.000000 -0.999928
vn -0.012040 0.000000 -0.999928
vn -0.012040 0.000000 -0.999928
vn -0.012040 0.000000 -0.999928
vn -0.033153 -0.999357 0.013688
vn -0.033153 -0.999357 0.013688
vn 0.000455 -0.999282 0.037881
vn 0.000455 -0.999282 0.037881
vn 0.995662 0.000000 -0.093044
vn 0.994031 -0.104894 -0.029995
vn 0.994031 -0.104894 -0.029995
vn 0.995662 0.000000 -0.093044
vn -0.970794 0.238660 0.024501
vn -0.983493 0.157593 0.088917
vn -0.983493 0.157593 0.088917
vn -0.970794 0.238660 0.024501
vn -0.950780 0.309568 -0.013598
vn -0.950780 0.309568 -0.013598
vn -0.062520 -0.998044 0.000722
vn -0.062520 -0.998044 0.000722
vn 0.976342 -0.215589 0.016668
vn 0.976342 -0.215589 0.016668
vn -0.496401 0.867854 -0.020372
vn -0.496401 0.867854 -0.020372
vn -0.953293 0.301768 0.012995
vn -0.953293 0.301768 0.012995
vn -0.058328 -0.998226 0.011971
vn -0.058328 -0.998226 0.011971
vn 0.974844 -0.222888 -0.000172
vn 0.974844 -0.222888 -0.000172
vn -0.577726 0.816152 0.011316
vn -0.577726 0.816152 0.011316
vn 0.012014 0.000000 0.999928
vn 0.012014 0.000000 0.999928
vn 0.012014 0.000000 0.999928
vn 0.012014 0.000000 0.999928
vn 0.033354 0.998792 -0.036083
vn 0.033354 0.998792 -0.036083
vn 0.034970 0.999233 -0.017648
vn 0.034970 0.999233 -0.017648
vn -0.012038 0.000000 -0.999928
vn -0.012038 0.000000 -0.999928
vn -0.012038 0.000000 -0.999928
vn -0.012038 0.000000 -0.999928
vn -0.527021 -0.849650 0.018518
vn -0.527021 -0.849650 0.018518
vn -0.399267 -0.916205 0.033960
vn -0.399267 -0.916205 0.033960
vn 0.997313 -0.056953 0.046082
vn 0.998479 -0.052375 0.017226
vn 0.998479 -0.052375 0.017226
vn 0.997313 -0.056953 0.046082
vn -0.997613 0.067076 -0.016375
vn -0.996709 0.067384 -0.045057
vn -0.996709 0.067384 -0.045057
vn -0.997613 0.067076 -0.016375
vn -0.999234 0.037645 0.010656
vn -0.993703 0.111452 -0.011534
vn -0.993703 0.111452 -0.011534
vn -0.999234 0.037645 0.010656
vn 0.010164 -0.999824 0.015782
vn 0.010164 -0.999824 0.015782
vn -0.056406 -0.998403 0.003009
vn -0.056406 -0.998403 0.003009
vn 0.995903 -0.089497 0.012960
vn 0.995903 -0.089497 0.012960
vn 0.999562 -0.028313 -0.008594
vn 0.999562 -0.028313 -0.008594
vn -0.463976 0.884514 -0.048594
vn -0.463976 0.884514 -0.048594
vn -0.536848 0.839148 -0.087320
vn -0.536848 0.839148 -0.087320
vn -0.984931 0.170816 0.027072
vn -0.984931 0.170816 0.027072
vn -0.296205 -0.953340 0.058366
vn -0.296205 -0.953340 0.058366
vn 0.990187 -0.135887 -0.032618
vn 0.990187 -0.135887 -0.032618
vn -0.263698 0.964095 -0.031391
vn -0.263698 0.964095 -0.031391
vn -0.992474 0.111739 0.050094
vn -0.992474 0.111739 0.050094
vn -0.555659 -0.828941 0.064039
vn -0.555659 -0.828941 0.064039
vn 0.994872 -0.084431 -0.055684
vn 0.994872 -0.084431 -0.055684
vn -0.049819 0.998417 -0.026109
vn -0.049819 0.998417 -0.026109
vn 0.000000 -1.000000 -0.000000
vn 0.000000 -1.000000 -0.000000
vn 0.000000 -1.000000 -0.000000
vn 0.000000 -1.000000 -0.000000
vn 0.012040 0.000000 0.999928
vn 0.012040 0.000000 0.999928
vn 0.012040 0.000000 0.999928
vn 0.012040 0.000000 0.999928
vn 0.000000 1.000000 -0.000001
vn 0.000000 1.000000 -0.000001
vn 0.000000 1.000000 -0.000001
vn 0.000000 1.000000 -0.000001
vn -0.012014 0.000000 -0.999928
vn -0.012014 0.000000 -0.999928
vn -0.012014 0.000000 -0.999928
vn -0.012014 0.000000 -0.999928
vn 0.999928 0.000000 -0.012029
vn 0.999928 0.000000 -0.012029
vn 0.999928 0.000000 -0.012029
vn 0.999928 0.000000 -0.012029
vn -0.999928 0.000000 0.012026
vn -0.999928 0.000000 0.012026
vn -0.999928 0.000000 0.012026
vn -0.999928 0.000000 0.012026
s off
g korkuluk1
f 1/1/1 2/2/2 4/3/3 3/4/4
s 2
f 3/5/5 4/6/6 20/7/7 17/8/8
s off
f 5/15/9 6/16/10 8/17/11 7/18/12
s 4
f 18/19/13 19/20/14 2/21/15 1/22/16
s 5
f 2/29/17 19/30/18 20/31/19 4/32/20
s 6
f 18/39/21 1/40/22 3/41/23 17/42/24
f 14/45/25 10/43/26 9/44/27 13/46/28
s 4
f 14/25/29 15/26/30 11/24/31 10/23/32
s 5
f 12/34/33 11/33/34 15/35/35 16/36/36
s 2
f 9/10/37 12/9/38 16/11/39 13/12/40
s 6
f 7/47/41 14/45/25 13/46/28 5/48/42
s 4
f 7/27/43 8/28/44 15/26/30 14/25/29
s 5
f 16/36/36 15/35/35 8/37/45 6/38/46
s 2
f 13/12/40 16/11/39 6/13/47 5/14/48
s 6
f 10/43/26 18/39/21 17/42/24 9/44/27
s 4
f 10/23/32 11/24/31 19/20/14 18/19/13
s 5
f 20/31/19 19/30/18 11/33/34 12/34/33
s 2
f 17/8/8 20/7/7 12/9/38 9/10/37
s off
f 21/49/49 22/50/50 24/51/51 23/52/52
s 8
f 23/53/53 24/54/54 40/55/55 37/56/56
s off
f 25/63/57 26/64/58 28/65/59 27/66/60
s 10
f 38/67/61 39/68/62 22/69/63 21/70/64
s 11
f 22/77/65 39/78/66 40/79/67 24/80/68
s 12
f 38/87/69 21/88/70 23/89/71 37/90/72
f 27/95/73 30/93/74 29/94/75 25/96/76
s 10
f 27/75/77 28/76/78 31/74/79 30/73/80
s 11
f 32/84/81 31/83/82 28/85/83 26/86/84
s 8
f 29/60/85 32/59/86 26/61/87 25/62/88
f 34/58/89 33/57/90 32/59/86 29/60/85
s 12
f 30/93/74 35/91/91 34/92/92 29/94/75
s 10
f 30/73/80 31/74/79 36/72/93 35/71/94
s 11
f 33/82/95 36/81/96 31/83/82 32/84/81
s 12
f 35/91/91 38/87/69 37/90/72 34/92/92
s 10
f 35/71/94 36/72/93 39/68/62 38/67/61
s 11
f 40/79/67 39/78/66 36/81/96 33/82/95
s 8
f 37/56/56 40/55/55 33/57/90 34/58/89
s off
f 41/97/97 42/98/98 44/99/99 43/100/100
s 14
f 43/101/101 44/102/102 52/103/103 49/104/104
s off
f 45/109/105 46/110/106 48/111/107 47/112/108
s 16
f 50/113/109 51/114/110 42/115/111 41/116/112
s 17
f 42/121/113 51/122/114 52/123/115 44/124/116
s 18
f 50/129/117 41/130/118 43/131/119 49/132/120
f 54/133/121 50/129/117 49/132/120 53/134/122
s 16
f 54/117/123 55/118/124 51/114/110 50/113/109
s 17
f 52/123/115 51/122/114 55/125/125 56/126/126
s 14
f 49/104/104 52/103/103 56/105/127 53/106/128
s 18
f 47/135/129 54/133/121 53/134/122 45/136/130
s 16
f 47/119/131 48/120/132 55/118/124 54/117/123
s 17
f 56/126/126 55/125/125 48/127/133 46/128/134
s 14
f 53/106/128 56/105/127 46/107/135 45/108/136
s off
f 57/137/137 58/138/138 60/139/139 59/140/140
s 20
f 59/141/141 60/142/142 77/143/143 78/144/144
s off
f 61/153/145 62/154/146 64/155/147 63/156/148
s 22
f 79/157/149 80/158/150 58/159/151 57/160/152
s 23
f 58/169/153 80/170/154 77/171/155 60/172/156
s 24
f 79/181/157 57/182/158 59/183/159 78/184/160
f 63/191/161 66/189/162 65/190/163 61/192/164
s 22
f 63/167/165 64/168/166 67/166/167 66/165/168
s 23
f 68/178/169 67/177/170 64/179/171 62/180/172
s 20
f 65/150/173 68/149/174 62/151/175 61/152/176
s 24
f 66/189/162 70/187/177 69/188/178 65/190/163
s 22
f 66/165/168 67/166/167 71/164/179 70/163/180
s 23
f 72/176/181 71/175/182 67/177/170 68/178/169
s 20
f 69/148/183 72/147/184 68/149/174 65/150/173
s 24
f 70/187/177 74/185/185 73/186/186 69/188/178
s 22
f 70/163/180 71/164/179 75/162/187 74/161/188
s 23
f 76/174/189 75/173/190 71/175/182 72/176/181
s 20
f 73/146/191 76/145/192 72/147/184 69/148/183
f 78/144/144 77/143/143 76/145/192 73/146/191
s 24
f 74/185/185 79/181/157 78/184/160 73/186/186
s 22
f 74/161/188 75/162/187 80/158/150 79/157/149
s 23
f 77/171/155 80/170/154 75/173/190 76/174/189
s off
f 81/193/193 82/194/194 84/195/195 83/196/196
f 83/197/197 84/198/198 86/199/199 85/200/200
f 85/201/201 86/202/202 88/203/203 87/204/204
f 87/205/205 88/206/206 82/207/207 81/208/208
f 82/209/209 88/210/210 86/211/211 84/212/212
f 87/213/213 81/214/214 83/215/215 85/216/216
